<?xml version="1.0" encoding="utf-8"?>
<!-- Generator: Adobe Illustrator 27.5.0, SVG Export Plug-In . SVG Version: 6.00 Build 0)  -->
<svg version="1.1" id="Ebene_1" xmlns="http://www.w3.org/2000/svg" xmlns:xlink="http://www.w3.org/1999/xlink" x="0px" y="0px"
	 viewBox="0 0 204.8 205.4" style="enable-background:new 0 0 204.8 205.4;" xml:space="preserve">
<style type="text/css">
	.st0{fill:#FFFFFF;}
</style>
<path class="st0" d="M204.8,90.8L186,86.4l16-10.8l-23.9-0.3l0.5,2.8l15.1-0.1v0.1l-13.8,9.4l16.3,3.9v0.1l-14.1,5.3l0.5,2.8
	L204.8,90.8L204.8,90.8z M193,61.7l2.3-1.2l-5.6-10.7l-20,10.4l5.6,10.7l2.3-1.2l-4.3-8.2l7.5-3.9l4.2,8l2.3-1.2l-4.1-8l5.6-2.9
	L193,61.7L193,61.7z M174.7,47.3c5.5-5.1,4.3-11.7-0.3-16.8l-3.1-3.4l-16.6,15.2l3.1,3.4C162.5,50.9,169.1,52.5,174.7,47.3
	L174.7,47.3z M172.7,45.3c-4.8,4.4-9.7,2.2-13.6-2l-0.7-0.7l12.8-11.8l0.7,0.7C175.8,35.8,177.6,40.9,172.7,45.3L172.7,45.3z
	 M150.7,39.2l2.9-25.6l-21.3,14.6l2.6,1.6l5.1-3.5l8.9,5.3l-0.7,6.2L150.7,39.2L150.7,39.2z M150.4,18.8l-1.3,9.9l-6.9-4.1
	L150.4,18.8L150.4,18.8z M122.6,13.2l12.3-7.3L131.3,5l-11.6,7.1l2.4-9.5l-2.7-0.7l-5.5,21.8l2.7,0.7l2.3-9.1l1.4-0.8l5.7,12.2
	l3.7,0.9L122.6,13.2L122.6,13.2z M105.6,23.2l3-0.1L97.2,0l-10,23.8l3-0.1l2.4-5.7l10.3-0.3L105.6,23.2L105.6,23.2z M101.6,15.1
	l-8,0.2l3.7-9.2L101.6,15.1L101.6,15.1z M79.8,15.2l-0.3-0.8l-8.4,3.1l0.9,2.4l5.5-2c1.2,3.5-1.3,7.6-4.6,8.8
	c-4.6,1.7-9.8-1.1-11.4-5.6c-1.8-4.7,0.5-9.9,5.2-11.7c2.6-1,5.6-0.5,7.9,1L75.8,8c-3-1.8-6.8-2.1-10.1-0.9c-6.1,2.3-9.1,9-6.8,15.1
	c2.2,5.8,8.8,9.2,14.7,7C79.5,26.9,82,21,79.8,15.2L79.8,15.2z M48.1,31.8c2.4-2.3,2.5-5.7,0.5-8.3c-1.3-1.7-3.4-2.8-5.6-2.5
	c-2,0.3-3.8,1.5-5.4,2.8l-2.7,2l13.6,17.9l2.2-1.7L45,34.4l0.9-0.7l11,3.6l2.7-2.1L48.1,31.8L48.1,31.8z M44.3,32.1l-0.7,0.5
	l-4.9-6.5l0.6-0.5c2.2-1.7,5.2-3.3,7.3-0.5C48.7,28.1,46.6,30.4,44.3,32.1L44.3,32.1z M27.3,47.3l-4.9-4l5.9-7.2l-2-1.6l-7.6,9.4
	l17.4,14.2l7.6-9.4l-2-1.6l-5.9,7.2l-6.6-5.4l5.7-7l-2-1.6L27.3,47.3L27.3,47.3z M20,62.5c0-1.7-1.3-3.3-2.8-4
	c-4.6-2.2-7.3,1-9.1,4.8l-1.2,2.5l20.3,9.7l2.3-4.7c1.7-3.6,1.7-7.8-2.3-9.8C24.8,59.8,21.6,60.3,20,62.5L20,62.5L20,62.5z
	 M17.4,66.9l-0.3,0.6l-6.7-3.2l0.3-0.7c1.1-2.4,2.5-4.1,5.4-2.7C19,62.3,18.5,64.5,17.4,66.9L17.4,66.9z M19.8,66.9
	c1.1-2.3,3.1-4.9,5.9-3.5c2.9,1.4,2.4,4.2,1.3,6.5l-0.9,1.9l-7-3.3L19.8,66.9L19.8,66.9z M14.6,93.6L0.4,93.3l-0.1,2.8l13.3,0.3
	c3.7,0.1,7,1.2,7,5.6c-0.1,4.3-3.5,5.4-7.2,5.3L0.1,107L0,109.8l14.2,0.3c5,0.1,8.8-2.9,8.9-8.1C23.3,96.9,19.6,93.7,14.6,93.6
	L14.6,93.6z M4,120l-2.5,0.6l3.1,13.1l2.5-0.6l-1.2-5.2l19.4-4.6l-0.6-2.7l-19.4,4.6L4,120L4,120z M43.8,157.3L28.7,174l2.1,1.9
	l7.4-8.2l5.8,5.2l1.7-1.9l-5.8-5.2l4.2-4.7l6,5.4l1.7-1.9L43.8,157.3L43.8,157.3z M55.8,168.1l-11.1,19.6l2.4,1.4l4.7-8.3l1,0.6
	l1.1,11.5l3,1.7l-1.3-12c3,1.3,6.2,0,7.8-2.8c1.1-1.9,1.2-4.2,0.1-6.1c-1.1-1.8-2.9-2.9-4.6-3.8L55.8,168.1L55.8,168.1z M53,178.7
	l4-7.1l0.6,0.4c2.4,1.4,5.1,3.5,3.3,6.5c-1.8,3.1-4.7,2-7.2,0.6L53,178.7L53,178.7z M71.6,176.8L65,198.3l11.6,3.5l0.7-2.5l-8.9-2.7
	l2.5-8.1l8.6,2.6l0.7-2.5l-8.6-2.6l1.8-6l8.9,2.7l0.7-2.5L71.6,176.8L71.6,176.8z M89.2,181.5l-2.7,22.3l2.8,0.3l2.7-22.3
	L89.2,181.5L89.2,181.5z M101.7,182.8l-2.7,0.1l0.8,22.5l5.2-0.2c4-0.1,7.7-2.1,7.6-6.6c-0.1-2.6-2-5.2-4.7-5.5V193
	c1.5-0.8,2.3-2.7,2.3-4.4C110,183.6,106,182.6,101.7,182.8L101.7,182.8z M102.2,194.9l1.7-0.1c2.5-0.1,5.8,0.4,5.9,3.6
	c0.1,3.2-2.6,4.1-5.2,4.2l-2.1,0.1L102.2,194.9L102.2,194.9z M101.9,185.3h0.8c2.6-0.1,4.8,0.4,4.9,3.5c0.1,3.2-2,3.8-4.7,3.9h-0.7
	L101.9,185.3L101.9,185.3z M128.1,178.3l-11.6,3.4l6.3,21.6l11.6-3.4l-0.7-2.5l-8.9,2.6l-2.4-8.2l8.7-2.5l-0.7-2.5l-8.7,2.5l-1.8-6
	l8.9-2.6L128.1,178.3L128.1,178.3z M133.1,176.7l10.8,19.7l2.5-1.4l-4.6-8.3l1-0.6l10.4,5.1l3-1.6l-10.9-5.2
	c2.7-1.9,3.3-5.3,1.7-8.1c-1-1.9-3-3.2-5.2-3.3c-2.1,0-4,1-5.7,1.9L133.1,176.7L133.1,176.7z M136.8,177.6l0.7-0.4
	c2.4-1.3,5.6-2.5,7.3,0.6c1.7,3.1-0.7,5.1-3.2,6.5l-0.8,0.4L136.8,177.6L136.8,177.6z M155.1,177.7c4.2,4.6,11.6,5.2,16.3,0.9
	c4.6-4.3,4.6-10.7,0.5-15.2l-0.6-0.7l-6.6,6l1.7,1.9l4.3-3.9c2.4,2.8,1.7,7.6-0.9,9.9c-3.6,3.3-9.5,2.6-12.7-0.9
	c-3.4-3.7-3.3-9.4,0.5-12.8c2-1.9,5-2.6,7.7-2.1l0.2-2.7c-3.5-0.6-7.1,0.6-9.7,3C151,165.5,150.8,172.9,155.1,177.7L155.1,177.7z
	 M181.1,115.7l-3,11.7l2.5,0.6l2.3-9l8.2,2.1l-2.2,8.7l2.5,0.6l2.2-8.7l6.1,1.5l-2.3,9l2.5,0.6l3-11.7L181.1,115.7L181.1,115.7z
	 M181.7,108.1l22.4,1.6l0.2-2.8l-22.4-1.6L181.7,108.1L181.7,108.1z M19.8,150c0,1.5,1.3,2.8,2.8,2.8s2.8-1.3,2.8-2.8
	s-1.3-2.8-2.8-2.8S19.8,148.5,19.8,150z M178.9,150c0,1.5,1.3,2.8,2.8,2.8s2.8-1.3,2.8-2.8s-1.3-2.8-2.8-2.8S178.9,148.5,178.9,150z
	"/>
<g>
	<path class="st0" d="M109.1,102.6l22.6-23.4l5.6,5.6l23.1,11.5l-11.5-23.1l-5.8-5.8l1.6-1.7l-5.4-5.4l-1.7,1.6l-13.5-13.4
		l-11.6,11.6l13.3,13.3l-21.2,20.5V64.4h0.5c2.2,0,3.9-1.8,3.9-3.9l-0.4-11h-4.4l0.4,9.8c0,0.4-0.3,0.7-0.7,0.7h-3.1
		c-0.4,0-0.7-0.3-0.7-0.7l0.4-9.8h-4.4l-0.4,11c0,2.2,1.8,3.9,3.9,3.9h0.5v29.5L76.9,71.5c4.9-4.4,10.5-8.1,16.5-11L82.3,47.7
		c-14.8,8.1-27,20.3-35.1,35.1l12.7,11.1c2.9-6.1,6.6-11.6,11-16.6l24.4,25.3l-36.9,35.6c-0.9,0.9-1,2.3-0.1,3.2
		c1.6,1.8,3.3,3.5,5.1,5.1c0.9,0.8,2.4,0.8,3.2-0.1l31.8-33l-0.4,3v0.9l-0.2,5.8v0.3v0.9l-0.1,3.5l0,0l-0.1,3.6l-0.1,0.3v0.9
		l-0.7,22.5c0,0,0,0,0,0.1v0.1c0,0.6,0.2,1.1,0.6,1.5c0.4,0.4,0.9,0.6,1.5,0.6l0,0H99h6.1h0.1h0.1c0.6,0,1.1-0.2,1.5-0.6
		s0.6-0.9,0.6-1.5l-0.7-22.9v-0.8v-0.1l-0.3-7.8v-0.5v-0.1l-0.2-5.9v-1l-0.1-0.6l-0.3-2.3l31.8,32.9c0.9,0.9,2.3,1,3.2,0.1
		c1.8-1.6,3.5-3.3,5.1-5.1c0.8-0.9,0.8-2.4-0.1-3.2L109.1,102.6z M99.5,62.6c-1.2,0-2.3-1-2.3-2.2l0.4-9.4h1.1l-0.3,8.1
		c0,1.3,1.1,2.4,2.4,2.4h3.1c1.3,0,2.4-1.1,2.4-2.4L106,51h1.1l0.4,9.3c0,1.2-1,2.3-2.3,2.3h-2.1v32.8l-0.7,0.6l-0.6-0.6V62.6
		L99.5,62.6L99.5,62.6z M104.7,116.7L104.7,116.7l0.4,11.2l0,0l0.3,10.6v0.1l0.5,16.6c0,0.2-0.1,0.3-0.2,0.4
		c-0.1,0.1-0.3,0.2-0.4,0.2h-6.1c-0.2,0-0.3-0.1-0.4-0.2c-0.1-0.1-0.2-0.3-0.2-0.4l0.5-15.9c0-0.1,0-0.1,0-0.2l0.2-6.9v-0.4v-0.1
		l0.1-4l0,0l0.1-3.9v-0.2v-0.2v-0.1l0.2-6.8l0,0c0,0,0.3-2.4,0.7-5.2l1.8-1.8l1.8,1.9C104.4,114.3,104.7,116.7,104.7,116.7z
		 M144.6,140.7l-4.3,4.3c-0.6,0.6-1.5,0.6-2.1,0l-6.6-7.1l0,0l-8.8-9.4l0,0l-1.1-1.2l0,0l-7.8-8.3l-0.6-0.6l-7.6-10.5
		c0-0.1-0.1-0.1-0.1-0.2l-3.3-3.2l-3.3,3.3c0,0-0.1,0.1-0.1,0.2l-7.6,10.5l-0.6,0.6l-8.9,9.5l0,0L73,138l0,0l-6.6,7.1
		c-0.6,0.6-1.5,0.6-2.1,0l-4.3-4.3c-0.6-0.6-0.6-1.5,0-2.1l16.4-15.4l0.4-0.3l9.2-8.6l0.6-0.6l10.5-7.6c0.1,0,0.1-0.1,0.2-0.1
		l3.3-3.3l-4.7-4.7l-8.3-8.3L69.2,71.5L65,75.7l-1.8-1.8l6-6l1.8,1.8l16.5,16.5l14.8,14.8l13.8-13.8l0,0l13-13l-1-1
		c-1.1-1.1-1.1-2.8,0-3.9l5.1-4.3c1.1-1,2.7-1,3.8,0.1l2.8,2.8c1,1,1.1,2.7,0.1,3.8l-4.3,5.1c-1.1,1.1-2.8,1.1-3.9,0l-0.7-0.7
		l-12.7,12.7l0,0l-14.1,14.1l3.3,3.3c0,0,0.1,0.1,0.2,0.1l10.5,7.6l0.6,0.6l9.2,8.7l0.3,0.2l16.4,15.4
		C145.2,139.2,145.2,140.1,144.6,140.7z"/>
	<path class="st0" d="M132.6,74.1c0.5,0.5,1.4,0.5,1.9,0l3.7-3.9c0.5-0.5,0.5-1.9,0-2.4l-1.2-1.2c-0.5-0.5-1.9-0.5-2.4,0l-3.9,3.7
		c-0.5,0.5-0.5,1.4,0,1.9L132.6,74.1z"/>
</g>
</svg>
